<svg xmlns="http://www.w3.org/2000/svg" width="500" viewBox="0 0 375 375" height="500" version="1.0"><path fill="#fff" d="M-37-37h450v450H-37z"/><path fill="#fff" d="M-37-37h450v450H-37z"/><path d="M110 156v43h-10v-43ZM111 199v-27h9v3c3-2 5-3 8-3a15 15 0 0 1 8 2l2 3 1 4v18h-9v-15l-1-4-3-1-4 1-2 4v15ZM147 172l6 15 7-15h10l-14 27h-6l-14-27Zm0 0"/><path d="m169 158 3-2 4 2 2 4-2 3-4 2-3-2-2-3 2-4Zm-1 14v27h9v-27Zm0 0"/><path d="M190 172a19 19 0 0 1 8 1l1 1-3 6-6-2h-2l-1 2 1 1a9 9 0 0 0 2 1 14 14 0 0 0 1 0l3 1 2 2 2 2 1 4c0 6-4 9-12 9a17 17 0 0 1-9-3l-2-1 4-6 1 1 3 1 3 1c2 0 2-1 2-2v-1l-3-2-2-1-4-3-2-4c0-3 1-5 3-6 2-2 5-2 9-2ZM200 158l3-2 4 2 2 4-2 3-4 2-3-2-2-3 2-4Zm-1 14v27h9v-27ZM236 176c3 2 4 6 4 10s-1 7-4 9c-2 3-5 5-9 5-3 0-6-2-9-4v3h-9v-44h9v20l9-3c4 0 7 1 9 4Zm-7 14 2-4a6 6 0 0 0-7-7l-4 2-2 5 2 4 4 2 5-2ZM240 199v-44h9v44Zm0 0"/><path d="M277 187h-20l2 4 4 1h4l3-3 6 4c-3 4-7 7-14 7-3 0-7-2-10-5-3-2-4-6-4-9 0-4 1-7 4-10s7-4 10-4c5 0 8 1 11 3 2 3 4 6 4 11v1Zm-19-5h10c0-2-1-3-2-3l-3-1-4 1-1 3ZM63 213h1l-1 1v-1l-1-1h-3l-1 1v1h-1v-1l3-6s0-1 0 0h1Zm-4-2h3l-2-3ZM75 208l1 1v3l-1 1-2 1-1-1-1-1v-3l1-1v4l1 1h1l1-1v-4ZM98 206v8h-1v-1a2 2 0 0 1-1 1h-2l-1-2v-2l1-1a2 2 0 0 1 3 0v-3h1Zm-2 7h1v-4h-2l-1 1v2l1 1h1ZM111 211h-4l1 2h2v-1h1v1l-1 1h-3l-1-1v-3a3 3 0 0 1 3-2l1 1a3 3 0 0 1 1 2Zm-2-2h-1l-1 1h3v-1h-1ZM120 213v1h-1v-8h1v1ZM133 208v6h-1v-1 1h-3l-1-2v-2l1-1a2 2 0 0 1 3-1v1-1h1Zm-2 5h1v-4h-2l-1 1v2l1 1h1Zm0-5h-1v-1h-1v-1h1v1h1v1ZM155 206h1v7l-1 1v-1a2 2 0 0 1-2 1h-1l-1-2v-2l1-1a2 2 0 0 1 3 0v-3Zm-2 7h1l1-1v-2l-1-1h-2v4h1ZM169 211h-4v2h2l1-1 1 1h-1v1h-3l-1-1v-3a3 3 0 0 1 2-2l1 1a3 3 0 0 1 2 2Zm-3-2h-1v1h3l-1-1h-1ZM176 213v-1h1l1 1h1l1-1h-1l-1-1h-1l-1-1 1-1v-1h2l1 1v1l-1-1a2 2 0 0 0-1 0l-1 1h1l1 1h1v2l-1 1h-2l-1-1ZM202 208h1v5l-1 1v-1l-1 1h-2l-1-2v-2l1-1a2 2 0 0 1 2-1l1 1v-1Zm-2 5h1l1-1v-2l-1-1h-2v1l-1 1 1 1v1h1ZM214 208l1 1 1 1v3h-1l-1 1a2 2 0 0 1-2-1v3h-1v-8h1v1h1l1-1Zm-1 5h1l1-1v-2l-1-1h-1a2 2 0 0 0-1 1v2l1 1ZM227 208l1 1 1 1v3h-1l-1 1a2 2 0 0 1-2-1v3h-1v-8h1v1h1l1-1Zm0 5 1-1v-2l-1-1a2 2 0 0 0-2 1v2l1 1h1ZM241 208h1v5l-1 1v-1l-1 1h-2l-1-2v-2l1-1a2 2 0 0 1 2-1l1 1v-1Zm-2 5h1l1-1v-2l-1-1h-2v4h1ZM253 208v1h-1l-1 1v3l-1 1v-6l1 1a2 2 0 0 1 2-1ZM266 211h-4v2h2l1-1v1l-1 1h-2l-1-1v-3a3 3 0 0 1 2-2l1 1a3 3 0 0 1 2 2Zm-3-2h-1v1h3l-1-1h-1ZM276 208c2 0 2 1 2 2v4h-1v-4l-1-1h-1a1 1 0 0 0 0 1v3l-1 1v-6 1h1a2 2 0 0 1 1-1ZM289 208h1l1 1h-1v1a6 6 0 0 0 0-1h-2l-1 1v2l1 1h2v-1l1 1h-1v1h-3l-1-2v-2l1-1 2-1ZM303 211h-4l1 2h2v-1h1v1l-1 1h-3l-1-1v-3a3 3 0 0 1 3-2l1 1a3 3 0 0 1 1 2Zm-2-2h-1l-1 1h3v-1h-1ZM311 213v-1l1 1h2v-1l-1-1h-2v-2l1-1h2l1 1-1 1-1-1a2 2 0 0 0-1 0v1l1 1h2v1l-1 1v1h-2l-1-1Zm0 0"/></svg>